Love for All and Sharing is the first step to solving all the problems of humanity.

Website I want to share. 
               
   http://www.scenetime.com
 
 
  Credit to EVERYONE for sharing and seeding back
 especially to SCENETIME.COM where i get all my 
 downloads.


 support www.scenetime.com to grow faster.

                             
                                                            
                                                   

.                 ..................................NFO:....................................
                                                     
                                                   
                                                         
                                                          
                                                           
                                                          
                                                          
                                                          
                                                           
                                                         
                                                          
                                                        
                                                      
                                     
                                                 
                                                   
                                             
                                              
                                                     
                                                      
                                                      
                                                      
                                                    
                                                     
                                                   
                                                     
                                                     
                                                      
                                                     
                                                      
                                                    
                 ARTiCHOKE                        
                                                
                      
                                                        
                                                      
                                                      
                                               
                                          
                                                   
                                            
                                                    
                                                       
                                                        
                                                      
                                                
                                                        
                                                 
                                              
                                                  
                                                
                                                  
                                        

      
                                
      SPRiNTER proudly presents...     
                                
      
 
 The.Giant.Monster.Gamera.1965.DVDRip.XviD-SPRiNTER  http://www.imdb.com/title/tt0059080/
 Audio: Japanese
 Subtitles: English

 Date: 2010.08

 Director: Noriaki Yuasa
 Plot: From out of the arctic comes a gigantic flying, fire-breathing turtle that sets its sights on destroying Tokyo.
 Genre: Sci-Fi

 Cast

	Eiji Funakoshi	 ...	Dr. Hidaka
	Harumi Kiritachi	 ...	Kyoke Yamamoto
	Junichir Yamashiko	 ...	Aoyagi
	Yoshiro Uchida	 ...	Toshio Sakurai
	Michiko Sugata	 ...	Nobuyo Sakurai
	Yoshiro Kitahara	 ...	Mr. Sakurai
	Jun Hamamura	 ...	Professor Murase
	Kenji Oyama	 ...	Minister of Defense
	Munehiko Takada	 ...	Soviet Representative
	Yoshio Yoshida	 ...	Eskimo Chief
	Jun Osanai	 ...	Chidori Maru Captain
	Daihachi Kita	 ...	Chidori Maru Navigator
	Kazuo Mori	 ...	Chidori Maru Radioman
	Kji Fujiyama	 ...	U.S. Arctic Base Commander
	Osamu Okawa	 ...	U.S. Air Base Radar Technician

      
                 
      Release notes     
                 
      

 Enjoy!


      
           
     Greetings    
           
      


NTX aAF FiCO HNR CiNEFiLE AEN HUMANiSM


      
           
      Details     
           
      

Format                           : AVI
Format/Info                      : Audio Video Interleave
File size                        : 701 MiB
Duration                         : 1h 18mn
Overall bit rate                 : 1 248 Kbps
Writing application              : VirtualDubMod 1.5.10.2 (build 2540/release)
Writing library                  : VirtualDubMod build 2540/release

Video
ID                               : 0
Format                           : MPEG-4 Visual
Format profile                   : Advanced Simple@L5
Format settings, BVOP            : Yes
Format settings, QPel            : No
Format settings, GMC             : No warppoints
Format settings, Matrix          : Default (H.263)
Codec ID                         : XVID
Codec ID/Hint                    : XviD
Duration                         : 1h 18mn
Bit rate                         : 1 155 Kbps
Width                            : 592 pixels
Height                           : 256 pixels
Display aspect ratio             : 2.35:1
Frame rate                       : 23.976 fps
Resolution                       : 8 bits
Colorimetry                      : 4:2:0
Scan type                        : Progressive
Bits/(Pixel*Frame)               : 0.318
Stream size                      : 649 MiB (93%)
Writing library                  : XviD 1.1.2 (UTC 2006-11-01)

Audio
ID                               : 1
Format                           : MPEG Audio
Format version                   : Version 1
Format profile                   : Layer 3
Codec ID                         : 55
Codec ID/Hint                    : MP3
Duration                         : 1h 18mn
Bit rate mode                    : Variable
Bit rate                         : 80.8 Kbps
Minimum bit rate                 : 32.0 Kbps
Channel(s)                       : 1 channel
Sampling rate                    : 48.0 KHz
Stream size                      : 45.4 MiB (6%)
Alignment                        : Aligned on interleaves
Interleave, duration             : 24 ms (0.58 video frame)
Interleave, preload duration     : 228 ms
Writing library                  : LAME3.95 
Encoding settings                : -m m -V 4 -q 3 -lowpass 18 --vbr-old -b 32